<svg width="59" height="72" viewBox="0 0 59 72" fill="none" xmlns="http://www.w3.org/2000/svg">
<path d="M11.9399 68.8473L12.8808 69.1189L15.309 69.8197C17.3645 70.4128 19.4955 69.5053 20.5423 67.7493L8.6145 64.3071C8.5649 66.3508 9.88435 68.2542 11.9399 68.8473Z" fill="#FDE5D0"/>
<path d="M8.61428 64.3073L20.542 67.7495C20.7406 67.4167 20.9037 67.0582 21.016 66.6689L30.8859 32.4681C36.5463 31.5956 41.4729 27.5557 43.1654 21.6911C44.8714 15.7793 42.8126 9.68513 38.4168 5.93794L34.5852 19.215L27.8436 17.2694L22.592 15.7539L26.4235 2.47686C20.705 3.30517 15.7153 7.36528 14.0092 13.277C12.3168 19.1416 14.3333 25.1853 18.6587 28.9395L8.78878 63.1402C8.67649 63.5297 8.62557 63.9205 8.61428 64.3073ZM21.8191 30.9983L27.2583 32.568L18.442 63.1179C18.2397 63.8189 17.5075 64.2229 16.8065 64.0206L13.9049 63.1833C13.2044 62.9811 12.8005 62.2493 13.0028 61.5482L21.8191 30.9983Z" fill="#FDE5D0"/>
<path d="M52.5784 35.6296L51.0824 35.6296L51.0824 60.9216L50.548 62.4773L50.548 68.8643L52.5784 70.8144L52.6883 70.9194L54.7617 68.8643L54.7617 62.4773L54.291 60.972L54.291 35.6296L52.5784 35.6296Z" fill="#FDE5D0"/>
<path d="M57.0105 9.38071L57.0105 4.61095C57.0105 2.49128 55.086 0.770066 52.7078 0.770066L52.5785 0.78204C50.2636 0.846844 48.4067 2.53034 48.4067 4.61096L48.4067 9.38071L48.4067 14.1099L48.4067 30.0693L46.8979 30.0693L46.8979 35.6294L51.0825 35.6294L52.5785 35.6294L54.2911 35.6294L58.478 35.6294L58.478 30.0693L57.0105 30.0693L57.0105 14.1099L57.0105 9.38071ZM51.7684 29.8261L50.2723 29.8261L50.2723 6.19229L51.7684 6.19229L51.7684 29.8261ZM55.1649 29.8261L53.6689 29.8261L53.6689 6.19229L55.1649 6.19229L55.1649 29.8261Z" fill="#FDE5D0"/>
<path d="M13.905 63.183L16.8065 64.0203C17.5075 64.2226 18.2397 63.8186 18.442 63.1176L27.2583 32.5677L21.8191 30.998L13.0028 61.548C12.8005 62.249 13.2045 62.9808 13.905 63.183Z" fill="#404040"/>
</svg>
